<svg width="892" height="854" viewBox="0 0 892 854" fill="none" xmlns="http://www.w3.org/2000/svg">
<path d="M443 36V62" stroke="black"/>
<path d="M443 86V112" stroke="black"/>
<path d="M443 70V78" stroke="black"/>
<path d="M443 120V128" stroke="black"/>
<path d="M443 137V163" stroke="black"/>
<path d="M443 187V213" stroke="black"/>
<path d="M443 171V179" stroke="black"/>
<path d="M443 221V229" stroke="black"/>
<path d="M443 237V263" stroke="black"/>
<path d="M443 287V313" stroke="black"/>
<path d="M443 271V279" stroke="black"/>
<path d="M443 321V329" stroke="black"/>
<path d="M443 338V364" stroke="black"/>
<path d="M443 388V414" stroke="black"/>
<path d="M443 372V380" stroke="black"/>
<path d="M443 422V430" stroke="black"/>
<path d="M443 439V465" stroke="black"/>
<path d="M443 489V515" stroke="black"/>
<path d="M443 473V481" stroke="black"/>
<path d="M443 523V531" stroke="black"/>
<path d="M443 540V566" stroke="black"/>
<path d="M443 590V616" stroke="black"/>
<path d="M443 574V582" stroke="black"/>
<path d="M443 624V632" stroke="black"/>
<path d="M443 640V666" stroke="black"/>
<path d="M443 690V716" stroke="black"/>
<path d="M443 674V682" stroke="black"/>
<path d="M443 724V732" stroke="black"/>
<path d="M443 741V767" stroke="black"/>
<path d="M443 791V817" stroke="black"/>
<path d="M443 775V783" stroke="black"/>
<path d="M443 825V833" stroke="black"/>
<path d="M833 426L807 426" stroke="black"/>
<path d="M783 426L757 426" stroke="black"/>
<path d="M799 426L791 426" stroke="black"/>
<path d="M749 426L741 426" stroke="black"/>
<path d="M732 426L706 426" stroke="black"/>
<path d="M682 426L656 426" stroke="black"/>
<path d="M698 426L690 426" stroke="black"/>
<path d="M648 426L640 426" stroke="black"/>
<path d="M632 426L606 426" stroke="black"/>
<path d="M582 426L556 426" stroke="black"/>
<path d="M598 426L590 426" stroke="black"/>
<path d="M548 426L540 426" stroke="black"/>
<path d="M531 426L505 426" stroke="black"/>
<path d="M481 426L455 426" stroke="black"/>
<path d="M497 426L489 426" stroke="black"/>
<path d="M447 426L439 426" stroke="black"/>
<path d="M430 426L404 426" stroke="black"/>
<path d="M380 426L354 426" stroke="black"/>
<path d="M396 426L388 426" stroke="black"/>
<path d="M346 426L338 426" stroke="black"/>
<path d="M329 426L303 426" stroke="black"/>
<path d="M279 426L253 426" stroke="black"/>
<path d="M295 426L287 426" stroke="black"/>
<path d="M245 426L237 426" stroke="black"/>
<path d="M229 426L203 426" stroke="black"/>
<path d="M179 426L153 426" stroke="black"/>
<path d="M195 426L187 426" stroke="black"/>
<path d="M145 426L137 426" stroke="black"/>
<path d="M128 426L102 426" stroke="black"/>
<path d="M78 426L52 426" stroke="black"/>
<path d="M94 426L86 426" stroke="black"/>
<path d="M44 426L36 426" stroke="black"/>
<path d="M841 426H849" stroke="black"/>
<path d="M443 21L443 29" stroke="black"/>
<path d="M441.996 2.46875V8.26953C441.992 9.07422 441.738 9.73242 441.234 10.2441C440.734 10.7559 440.055 11.043 439.195 11.1055L438.896 11.1172C437.963 11.1172 437.219 10.8652 436.664 10.3613C436.109 9.85742 435.828 9.16406 435.82 8.28125V2.46875H436.934V8.24609C436.934 8.86328 437.104 9.34375 437.443 9.6875C437.783 10.0273 438.268 10.1973 438.896 10.1973C439.533 10.1973 440.02 10.0273 440.355 9.6875C440.695 9.34766 440.865 8.86914 440.865 8.25195V2.46875H441.996ZM444.896 7.66016V11H443.771V2.46875H446.918C447.852 2.46875 448.582 2.70703 449.109 3.18359C449.641 3.66016 449.906 4.29102 449.906 5.07617C449.906 5.9043 449.646 6.54297 449.127 6.99219C448.611 7.4375 447.871 7.66016 446.906 7.66016H444.896ZM444.896 6.74023H446.918C447.52 6.74023 447.98 6.59961 448.301 6.31836C448.621 6.0332 448.781 5.62305 448.781 5.08789C448.781 4.58008 448.621 4.17383 448.301 3.86914C447.98 3.56445 447.541 3.40625 446.982 3.39453H444.896V6.74023Z" fill="black"/>
<path d="M425.99 851V842.469H428.398C429.141 842.469 429.797 842.633 430.367 842.961C430.938 843.289 431.377 843.756 431.686 844.361C431.998 844.967 432.156 845.662 432.16 846.447V846.992C432.16 847.797 432.004 848.502 431.691 849.107C431.383 849.713 430.939 850.178 430.361 850.502C429.787 850.826 429.117 850.992 428.352 851H425.99ZM427.115 843.395V850.08H428.299C429.166 850.08 429.84 849.811 430.32 849.271C430.805 848.732 431.047 847.965 431.047 846.969V846.471C431.047 845.502 430.818 844.75 430.361 844.215C429.908 843.676 429.264 843.402 428.428 843.395H427.115ZM440.428 847.01C440.428 847.846 440.287 848.576 440.006 849.201C439.725 849.822 439.326 850.297 438.811 850.625C438.295 850.953 437.693 851.117 437.006 851.117C436.334 851.117 435.738 850.953 435.219 850.625C434.699 850.293 434.295 849.822 434.006 849.213C433.721 848.6 433.574 847.891 433.566 847.086V846.471C433.566 845.65 433.709 844.926 433.994 844.297C434.279 843.668 434.682 843.188 435.201 842.855C435.725 842.52 436.322 842.352 436.994 842.352C437.678 842.352 438.279 842.518 438.799 842.85C439.322 843.178 439.725 843.656 440.006 844.285C440.287 844.91 440.428 845.639 440.428 846.471V847.01ZM439.309 846.459C439.309 845.447 439.105 844.672 438.699 844.133C438.293 843.59 437.725 843.318 436.994 843.318C436.283 843.318 435.723 843.59 435.312 844.133C434.906 844.672 434.697 845.422 434.686 846.383V847.01C434.686 847.99 434.891 848.762 435.301 849.324C435.715 849.883 436.283 850.162 437.006 850.162C437.732 850.162 438.295 849.898 438.693 849.371C439.092 848.84 439.297 848.08 439.309 847.092V846.459ZM443.955 848.311L444.119 849.436L444.359 848.422L446.047 842.469H446.996L448.643 848.422L448.877 849.453L449.059 848.305L450.383 842.469H451.514L449.445 851H448.42L446.662 844.783L446.527 844.133L446.393 844.783L444.57 851H443.545L441.482 842.469H442.607L443.955 848.311ZM459.324 851H458.193L453.898 844.426V851H452.768V842.469H453.898L458.205 849.072V842.469H459.324V851Z" fill="black"/>
<path d="M2.12109 429.08H6.16406V430H0.990234V421.469H2.12109V429.08ZM12.2695 426.057H8.57227V429.08H12.8672V430H7.44727V421.469H12.8086V422.395H8.57227V425.137H12.2695V426.057ZM18.9727 426.232H15.3926V430H14.2676V421.469H19.5527V422.395H15.3926V425.312H18.9727V426.232ZM26.9121 422.395H24.1699V430H23.0508V422.395H20.3145V421.469H26.9121V422.395Z" fill="black"/>
<path d="M861.119 426.549H859.115V430H857.984V421.469H860.809C861.77 421.469 862.508 421.688 863.023 422.125C863.543 422.562 863.803 423.199 863.803 424.035C863.803 424.566 863.658 425.029 863.369 425.424C863.084 425.818 862.686 426.113 862.174 426.309L864.178 429.93V430H862.971L861.119 426.549ZM859.115 425.629H860.844C861.402 425.629 861.846 425.484 862.174 425.195C862.506 424.906 862.672 424.52 862.672 424.035C862.672 423.508 862.514 423.104 862.197 422.822C861.885 422.541 861.432 422.398 860.838 422.395H859.115V425.629ZM866.592 430H865.467V421.469H866.592V430ZM874.953 428.881C874.664 429.295 874.26 429.605 873.74 429.812C873.225 430.016 872.623 430.117 871.936 430.117C871.24 430.117 870.623 429.955 870.084 429.631C869.545 429.303 869.127 428.838 868.83 428.236C868.537 427.635 868.387 426.938 868.379 426.145V425.4C868.379 424.115 868.678 423.119 869.275 422.412C869.877 421.705 870.721 421.352 871.807 421.352C872.697 421.352 873.414 421.58 873.957 422.037C874.5 422.49 874.832 423.135 874.953 423.971H873.828C873.617 422.842 872.945 422.277 871.812 422.277C871.059 422.277 870.486 422.543 870.096 423.074C869.709 423.602 869.514 424.367 869.51 425.371V426.068C869.51 427.025 869.729 427.787 870.166 428.354C870.604 428.916 871.195 429.197 871.941 429.197C872.363 429.197 872.732 429.15 873.049 429.057C873.365 428.963 873.627 428.805 873.834 428.582V426.666H871.859V425.752H874.953V428.881ZM883.391 430H882.26V426.057H877.959V430H876.834V421.469H877.959V425.137H882.26V421.469H883.391V430ZM891.107 422.395H888.365V430H887.246V422.395H884.51V421.469H891.107V422.395Z" fill="black"/>
</svg>
